# xmcd CD database file
#
# Track frame offsets:
#	150
#	13351
#	25465
#	41724
#	53588
#	75556
#	89874
#
# Disc length: 1495 seconds
#
# Revision: 1
# Processed by: cddbd v1.5.1PL2 Copyright (c) Steve Scherf et al.
# Submitted via: CDex 1.51
#
DISCID=5805d507
DTITLE=Compil Rappelez moi votre nom - Jazz Magazine 573
DYEAR=1900
DGENRE=Jazz
TTITLE0=Duke Elington Harlemania
TTITLE1=Earl Hines Topsy Turvy
TTITLE2=Jimmy Rushing Goin to Chicago
TTITLE3=Marc Richard Cooking the Rabbit
TTITLE4=Claude Tissendier sextet Carrots for Hodges
TTITLE5=John Webster and Johnny Otis Star Dust
TTITLE6=Kay Davis and  Billy Stryhorn Lush life New York
EXTD=
EXTT0=
EXTT1=
EXTT2=
EXTT3=
EXTT4=
EXTT5=
EXTT6=
PLAYORDER=
